<svg width="217" height="145" viewBox="0 0 217 145" fill="none" xmlns="http://www.w3.org/2000/svg">
<path fill-rule="evenodd" clip-rule="evenodd" d="M108.283 98C135.318 98 157.235 76.062 157.235 49C157.235 21.938 135.318 0 108.283 0C81.2472 0 59.3306 21.938 59.3306 49C59.3306 76.062 81.2472 98 108.283 98ZM129.428 8.42195C130.824 8.92081 133.843 10.2927 134.757 11.7893C118.518 20.8934 87.2569 49.7275 92.1287 92.2303C87.6883 90.8585 77.6656 86.3188 73.0982 79.1353C75.3819 62.5482 89.845 25.1836 129.428 8.42195ZM150.362 28.6258C150.996 29.9976 152.341 33.0407 152.646 34.2379C144.145 39.8501 127.069 59.156 126.764 91.482C123.719 92.8539 116.488 95.448 111.92 94.8493C110.905 80.6319 117.173 47.4826 150.362 28.6258ZM98.3392 22.586C98.3392 27.4487 94.4011 31.3907 89.5431 31.3907C84.6852 31.3907 80.747 27.4487 80.747 22.586C80.747 17.7233 84.6852 13.7813 89.5431 13.7813C94.4011 13.7813 98.3392 17.7233 98.3392 22.586ZM129.699 38.2813C133.924 38.2813 137.348 34.8535 137.348 30.6251C137.348 26.3966 133.924 22.9688 129.699 22.9688C125.475 22.9688 122.05 26.3966 122.05 30.6251C122.05 34.8535 125.475 38.2813 129.699 38.2813Z" fill="white"/>
<path d="M7.875 144.185L8.82 139.685C9.855 134.825 11.025 128.75 11.52 125.015H11.7C11.745 125.69 13.23 137.525 13.41 144.185H23.13L29.61 113.585H21.735L20.79 117.905C19.89 122.135 18.9 127.76 18.405 131.63H18.225C18.18 130.955 16.785 119.84 16.425 113.585H6.525L0 144.185H7.875Z" fill="white"/>
<path d="M34.0274 113.585L29.7974 133.655C28.2224 140.855 31.3724 144.815 39.8324 144.815C48.2474 144.815 51.2624 140.945 52.7024 134.105L57.1124 113.585H48.2474L43.7924 134.6C43.3424 136.76 42.6674 138.56 40.4624 138.56C38.1224 138.56 37.9424 136.67 38.3474 134.6L42.8474 113.585H34.0274Z" fill="white"/>
<path d="M82.3314 126.545H70.4964L69.1464 132.53H72.4764L72.2064 133.88C71.6664 136.49 70.8114 138.515 68.4264 138.515C66.1764 138.515 65.5914 136.085 66.3564 130.82C67.1664 124.52 68.7414 119.21 72.1164 119.21C74.5014 119.21 74.5464 121.1 74.3664 122.855H83.0064C83.3214 117.95 80.6664 113 72.4764 113C62.5764 113 58.5714 120.92 57.3564 130.46C56.1864 139.865 59.0664 144.86 65.3664 144.86C69.0114 144.86 71.0364 143.87 72.7914 141.575C72.7014 142.34 72.5664 143.69 72.6114 144.185H78.5964C78.7314 143.375 80.8464 133.475 82.3314 126.545Z" fill="white"/>
<path d="M98.3985 138.11L98.2185 144.185H106.948L106.678 113.585H94.3935C93.3135 115.655 82.1535 142.565 81.3435 144.185H90.2535L92.5485 138.11H98.3985ZM94.9785 131.495C96.5085 127.175 98.0385 122.675 99.0285 119.48H99.2985C99.1185 122.45 98.8485 127.58 98.6685 131.495H94.9785Z" fill="white"/>
<path d="M116.499 144.185H129.774C136.659 144.185 140.889 140.9 141.384 135.185C141.744 131.315 139.584 129.155 137.829 128.255C140.394 127.4 142.599 125.42 142.914 121.775C143.409 117.005 140.484 113.585 133.869 113.585H123.024L116.499 144.185ZM128.919 125.555L130.269 119.255H131.844C133.824 119.255 134.589 120.29 134.364 122.315C134.139 124.655 133.059 125.555 130.629 125.555H128.919ZM127.794 130.91H129.414C131.709 130.91 132.699 131.99 132.429 134.555C132.159 137.66 130.359 138.605 128.199 138.605H126.129L127.794 130.91Z" fill="white"/>
<path d="M165.636 125.33H155.421L156.501 120.065H167.166L168.561 113.585H149.391L142.866 144.185H162.756L164.871 137.795H152.766L154.026 131.765H164.286L165.636 125.33Z" fill="white"/>
<path d="M167.362 134.825C166.867 140.225 169.657 144.86 177.982 144.86C185.362 144.86 189.367 141.305 189.817 135.905C190.357 131.495 188.827 128.57 182.797 125.195C179.737 123.35 179.017 122.54 179.107 121.1C179.242 119.705 179.962 118.85 181.357 118.85C183.382 118.85 183.787 120.65 183.652 122.54H191.707C192.157 117.545 189.187 113 181.267 113C174.202 113 170.872 116.825 170.512 121.55C170.062 126.14 172.222 128.525 177.127 131.315C180.232 133.205 181.087 134.33 180.907 136.265C180.772 137.885 180.007 138.965 178.207 138.965C176.092 138.965 175.507 137.12 175.642 134.825H167.362Z" fill="white"/>
<path d="M194.965 144.185H203.695L208.825 120.065H215.215L216.565 113.585H194.965L193.615 120.065H200.05L194.965 144.185Z" fill="white"/>
</svg>
