<svg width="392" height="70" viewBox="0 0 392 70" fill="none" xmlns="http://www.w3.org/2000/svg">
<path fill-rule="evenodd" clip-rule="evenodd" d="M34.9659 70C54.277 70 69.9317 54.33 69.9317 35C69.9317 15.67 54.277 0 34.9659 0C15.6547 0 0 15.67 0 35C0 54.33 15.6547 70 34.9659 70ZM50.07 6.01562C51.0668 6.37195 53.2236 7.35186 53.8761 8.42084C42.2765 14.9238 19.9475 35.5196 23.4273 65.8788C20.2556 64.8989 13.0965 61.6563 9.83415 56.5251C11.4653 44.6772 21.7961 17.9883 50.07 6.01562ZM65.0225 20.4469C65.4756 21.4268 66.4362 23.6004 66.6537 24.4556C60.582 28.4643 48.3844 42.2542 48.1669 65.3443C45.992 66.3242 40.8266 68.1771 37.5642 67.7495C36.8393 57.5941 41.316 33.9161 65.0225 20.4469ZM27.8634 16.1328C27.8634 19.6062 25.0505 22.4219 21.5805 22.4219C18.1105 22.4219 15.2976 19.6062 15.2976 16.1328C15.2976 12.6595 18.1105 9.84375 21.5805 9.84375C25.0505 9.84375 27.8634 12.6595 27.8634 16.1328ZM50.2634 27.3438C53.2808 27.3438 55.7268 24.8953 55.7268 21.875C55.7268 18.8547 53.2808 16.4062 50.2634 16.4062C47.2461 16.4062 44.8 18.8547 44.8 21.875C44.8 24.8953 47.2461 27.3438 50.2634 27.3438Z" fill="#CE2E4B"/>
<path d="M82.7708 56.5458L91.9073 13.5145H103.464L100.136 29.4855H110.422L113.75 13.5145H125.307L116.171 56.5458H104.614L108.305 39.0078H98.079L94.3276 56.5458H82.7708Z" fill="#2330B8"/>
<path d="M133.286 57.1484C132.277 57.1484 131.209 57.0681 130.079 56.9074C128.95 56.7467 127.921 56.5458 126.993 56.3047V47.2645C127.719 47.4252 128.486 47.5859 129.292 47.7467C130.099 47.9074 131.027 47.9877 132.076 47.9877C133.004 47.9877 133.79 47.9275 134.436 47.8069C135.081 47.6462 135.605 47.4252 136.009 47.144C136.452 46.8225 136.836 46.4208 137.158 45.9386C137.521 45.4565 137.864 44.8739 138.187 44.1908L129.898 13.5145H141.696L144.903 29.3047C145.024 29.8672 145.145 30.4498 145.266 31.0525C145.387 31.6551 145.508 32.2578 145.629 32.8605C145.75 33.423 145.831 33.9654 145.871 34.4877C146.154 33.6842 146.456 32.8404 146.779 31.9565C147.142 31.0725 147.505 30.2489 147.868 29.4855L155.371 13.5145H168.138L149.32 46.8426C147.989 49.2132 146.597 51.1618 145.145 52.6886C143.693 54.2154 142.019 55.3404 140.123 56.0636C138.268 56.7868 135.989 57.1484 133.286 57.1484Z" fill="#2330B8"/>
<path d="M163.781 56.5458L172.918 13.5145H198.391L196.395 22.9163H182.478L175.338 56.5458H163.781Z" fill="#2330B8"/>
<path d="M188.138 56.5458L210.102 13.5145H224.986L228.617 56.5458H217.363L217.06 48.4699H203.809L200.118 56.5458H188.138ZM208.045 39.3092H216.697L216.273 26.9542C216.233 25.99 216.193 25.0458 216.152 24.1216C216.152 23.1574 216.173 22.2533 216.213 21.4096H216.031C215.749 22.2935 215.426 23.1775 215.063 24.0614C214.741 24.9051 214.357 25.7891 213.914 26.7132L208.045 39.3092Z" fill="#2330B8"/>
<path d="M246.978 56.5458L256.054 13.5145H281.588L279.592 22.9163H265.614L264.283 29.4855H265.13C268.478 29.4855 271.221 30.0279 273.359 31.1127C275.538 32.1574 277.151 33.6038 278.2 35.452C279.289 37.3002 279.834 39.3895 279.834 41.7199C279.834 43.9297 279.471 45.9386 278.744 47.7467C278.018 49.5547 276.909 51.1217 275.417 52.4475C273.964 53.7333 272.129 54.7377 269.91 55.4609C267.732 56.1842 265.171 56.5458 262.226 56.5458H246.978ZM262.831 47.5658C264.001 47.5658 264.969 47.365 265.735 46.9632C266.542 46.5212 267.147 45.9185 267.551 45.1551C267.994 44.3516 268.216 43.4074 268.216 42.3225C268.216 41.3181 267.894 40.4342 267.248 39.6708C266.603 38.8672 265.635 38.4654 264.344 38.4654H262.347L260.532 47.5658H262.831Z" fill="#2330B8"/>
<path d="M283.85 56.5458L292.986 13.5145H318.641L316.705 22.856H302.607L301.215 29.606H314.345L312.227 38.9475H299.097L297.403 47.0837H311.501L309.505 56.5458H283.85Z" fill="#2330B8"/>
<path d="M335.917 57.1484C332.327 57.1484 329.342 56.4453 326.962 55.0391C324.582 53.6328 322.807 51.6842 321.638 49.1931C320.508 46.6618 319.943 43.7288 319.943 40.394C319.943 37.8225 320.226 35.231 320.791 32.6194C321.355 30.0078 322.202 27.5167 323.332 25.1462C324.502 22.7757 325.994 20.6663 327.809 18.8181C329.625 16.9699 331.783 15.5234 334.284 14.4788C336.785 13.394 339.649 12.8516 342.876 12.8516C345.74 12.8516 348.321 13.1931 350.62 13.8761C352.92 14.5592 355.078 15.5033 357.095 16.7087L352.738 25.6886C350.883 24.6038 349.188 23.8002 347.656 23.2779C346.123 22.7154 344.529 22.4342 342.876 22.4342C341.464 22.4342 340.173 22.7556 339.003 23.3984C337.833 24.0011 336.785 24.865 335.857 25.99C334.969 27.115 334.203 28.4208 333.558 29.9074C332.912 31.3538 332.428 32.9208 332.105 34.6083C331.783 36.2958 331.621 38.0234 331.621 39.7913C331.621 42.4029 332.166 44.3717 333.255 45.6975C334.384 46.9833 335.978 47.6261 338.035 47.6261C339.81 47.6261 341.524 47.4051 343.178 46.9632C344.872 46.5212 346.788 45.8583 348.926 44.9743V54.4967C346.829 55.4208 344.691 56.1038 342.513 56.5458C340.375 56.9475 338.176 57.1484 335.917 57.1484Z" fill="#2330B8"/>
<path d="M361.928 56.5458L368.947 23.0368H359.568L361.626 13.5145H392L389.882 23.0368H380.504L373.485 56.5458H361.928Z" fill="#2330B8"/>
</svg>
